<svg xmlns="http://www.w3.org/2000/svg" viewBox="0 0 1440 320">
    <defs>
        <linearGradient id="grad1" x1="0%" y1="100%" x2="0%" y2="0%">
        <stop offset="0%" style="stop-color:rgb(95,158,160,1);stop-opacity:1" />
        <stop offset="100%" style="stop-color:rgb(255,255,255,1);stop-opacity:1"/>
        </linearGradient>
    </defs>
    <path fill="url(#grad1)" fill-opacity="1" d="M0,128L60,144C120,160,240,192,360,218.7C480,245,600,267,720,266.7C840,267,960,245,1080,240C1200,235,1320,245,1380,250.7L1440,256L1440,320L1380,320C1320,320,1200,320,1080,320C960,320,840,320,720,320C600,320,480,320,360,320C240,320,120,320,60,320L0,320Z"></path>
</svg>